<svg xmlns="http://www.w3.org/2000/svg" xmlns:svg="http://www.w3.org/2000/svg" xmlns:xlink="http://www.w3.org/1999/xlink" version="1.0" height="959.9999951282903pt" width="1520.0000000000246pt" viewBox="185 -853.0000000000002 1528.0000000000246 965.9999951282903" ><defs><style type="text/css">
            @font-face {
                font-family: 'noto_regular';
                src: url('https://app.creately.com/diagram/assets/fonts/noto/noto-regular.woff') format('woff'),
                     url('https://app.creately.com/diagram/assets/fonts/noto/noto-regular.woff2') format('woff2');
                font-weight: normal;
                font-style: normal;
            }
        p {
            margin: 0;
        }
        </style></defs><defs><style>
            span{ display: inline-block; }
        </style></defs><g id="PPAZL6hlypL"><g transform="translate(1529.9999999999998 -480.00000000000017)"><path d="M 20.000000000000085,40.00000000000017 L 20.000000000000085,40.00000000000017 L 20.000000000000085,40.00000000000017 A 20.000000000000085 20.000000000000085 0 0 1 0 20.00000000000009 L 0,20.000000000000085 L 0,20.00000000000009 A 20.000000000000085 20.000000000000085 0 0 1 20.000000000000085 0 L 160.0000000000245,0 L 160.0000000000245,0 L 160.0000000000245,0 A 20.000000000000085 20.000000000000085 0 0 1 180.00000000002458 20.000000000000085 L 180.00000000002458,20.000000000000085 L 180.00000000002458,20.000000000000085 A 20.000000000000085 20.000000000000085 0 0 1 160.0000000000245 40.00000000000017 L 20.000000000000085,40.00000000000017 Z" fill="rgb(244,209,231)" stroke="#C93B76" stroke-width="2" stroke-linecap="round" stroke-linejoin="round"/></g><g transform="translate(1555.760000000012, -478.4000000000001) rotate(0, 64.24, 18.4)" width="128.48" height="36.8"><text text-decoration="none" x="18.239999999999995" fill="#90264D" font-size="20pt" font-family="noto_regular"  y="28">Output&#160;</text><text text-decoration="none" x="48.239999999999995" fill="#90264D" font-size="20pt" font-family="noto_regular"  y="64">#1</text><text text-decoration="none" x="80.24" fill="#4b4b4b" font-size="10pt" font-family="noto_regular"  y="64"></text></g></g><g id="3jIExWdIfas"><g transform="translate(1530 -249.99999999999994)"><path d="M 22.50000000004377,45.00000000008754 L 22.50000000004377,45.00000000008754 L 22.50000000004377,45.00000000008754 A 22.50000000004377 22.50000000004377 0 0 1 0 22.500000000043773 L 0,22.50000000004377 L 0,22.500000000043773 A 22.50000000004377 22.50000000004377 0 0 1 22.50000000004377 0 L 157.49999999998082,0 L 157.49999999998082,0 L 157.49999999998082,0 A 22.50000000004377 22.50000000004377 0 0 1 180.00000000002458 22.50000000004377 L 180.00000000002458,22.50000000004377 L 180.00000000002458,22.50000000004377 A 22.50000000004377 22.50000000004377 0 0 1 157.49999999998082 45.00000000008754 L 22.50000000004377,45.00000000008754 Z" fill="rgb(244,209,231)" stroke="#C93B76" stroke-width="2" stroke-linecap="round" stroke-linejoin="round"/></g><g transform="translate(1540.0000000000123, -245.89999961848645) rotate(0, 80, 18.399999618530273)" width="160" height="36.79999923706055"><text text-decoration="none" x="14.5" fill="#90264D" font-size="20pt" font-family="noto_regular"  y="28">Output&#160;</text><text text-decoration="none" x="113.5" fill="#90264D" font-size="20pt" font-family="noto_regular"  y="28">#2</text><text text-decoration="none" x="145.5" fill="#4b4b4b" font-size="10pt" font-family="noto_regular"  y="28"></text></g></g><g id="p0ZQ9ttbFyG"><g transform="translate(440 -560)"><ellipse cx="50" cy="50" rx="50" ry="50" fill="rgb(182,241,250)" stroke="#418FAE" stroke-width="2" stroke-linecap="round" stroke-linejoin="round"/></g><g transform="translate(489.995, -519.6) rotate(0, 0.005, 9.6)" width="0.01" height="19.2"><text text-decoration="none" x="0.005" fill="#4b4b4b" font-size="10pt" font-family="noto_regular"  y="17"></text></g></g><g id="1Q0eK0AEc1Q"><g transform="translate(439.9999999999999 -320)"><ellipse cx="50" cy="50" rx="50" ry="50" fill="rgb(182,241,250)" stroke="#418FAE" stroke-width="2" stroke-linecap="round" stroke-linejoin="round"/></g><g transform="translate(489.9949999999999, -279.6) rotate(0, 0.005, 9.6)" width="0.01" height="19.2"><text text-decoration="none" x="0.005" fill="#4b4b4b" font-size="10pt" font-family="noto_regular"  y="17"></text></g></g><g id="C8uATxYM9Qh"><g transform="translate(439.9999999999999 -80)"><ellipse cx="50" cy="50" rx="50" ry="50" fill="rgb(182,241,250)" stroke="#418FAE" stroke-width="2" stroke-linecap="round" stroke-linejoin="round"/></g><g transform="translate(489.9949999999999, -39.6) rotate(0, 0.005, 9.6)" width="0.01" height="19.2"><text text-decoration="none" x="0.005" fill="#4b4b4b" font-size="10pt" font-family="noto_regular"  y="17"></text></g></g><g id="QAn1jUisiFn"><g transform="translate(895.0000052648468 -429.9999999999999)"><ellipse cx="50" cy="50" rx="50" ry="50" fill="rgb(239,209,251)" stroke="#B135CC" stroke-width="2" stroke-linecap="round" stroke-linejoin="round"/></g><g transform="translate(944.9950052648468, -389.5999999999999) rotate(0, 0.005, 9.6)" width="0.01" height="19.2"><text text-decoration="none" x="0.005" fill="#4b4b4b" font-size="10pt" font-family="noto_regular"  y="17"></text></g></g><g id="wL9mGtEelXb"><g transform="translate(895.0000072461733 -210.00000257726856)"><ellipse cx="50" cy="50" rx="50" ry="50" fill="rgb(239,209,251)" stroke="#B135CC" stroke-width="2" stroke-linecap="round" stroke-linejoin="round"/></g><g transform="translate(944.9950072461733, -169.60000257726855) rotate(0, 0.005, 9.6)" width="0.01" height="19.2"><text text-decoration="none" x="0.005" fill="#4b4b4b" font-size="10pt" font-family="noto_regular"  y="17"></text></g></g><g id="Wu6EOaS374X"><g transform="translate(890.0000000000002 9.999995128290038)"><ellipse cx="50" cy="50" rx="50" ry="50" fill="rgb(239,209,251)" stroke="#B135CC" stroke-width="2" stroke-linecap="round" stroke-linejoin="round"/></g><g transform="translate(939.9950000000002, 50.39999512829004) rotate(0, 0.005, 9.6)" width="0.01" height="19.2"><text text-decoration="none" x="0.005" fill="#4b4b4b" font-size="10pt" font-family="noto_regular"  y="17"></text></g></g><g id="CCbJ9hUqq33"><g transform="translate(894.999994575426 -650.0000019510402)"><ellipse cx="50" cy="50" rx="50" ry="50" fill="rgb(239,209,251)" stroke="#B135CC" stroke-width="2" stroke-linecap="round" stroke-linejoin="round"/></g><g transform="translate(944.994994575426, -609.6000019510402) rotate(0, 0.005, 9.6)" width="0.01" height="19.2"><text text-decoration="none" x="0.005" fill="#4b4b4b" font-size="10pt" font-family="noto_regular"  y="17"></text></g></g><g id="3UKA1FQXlaI"><g transform="translate(1354.9999896734291 -499.9999999697134)"><ellipse cx="50" cy="50" rx="50" ry="50" fill="rgb(249,231,150)" stroke="#CC7B2E" stroke-width="2" stroke-linecap="round" stroke-linejoin="round"/></g><g transform="translate(1404.994989673429, -459.5999999697134) rotate(0, 0.005, 9.6)" width="0.01" height="19.2"><text text-decoration="none" x="0.005" fill="#4b4b4b" font-size="10pt" font-family="noto_regular"  y="17"></text></g></g><g id="Jc0xnmKYrU5"><g transform="translate(1354.9999789840078 -270.00000242071167)"><ellipse cx="50" cy="50" rx="50" ry="50" fill="rgb(249,231,150)" stroke="#CC7B2E" stroke-width="2" stroke-linecap="round" stroke-linejoin="round"/></g><g transform="translate(1404.9949789840077, -229.60000242071166) rotate(0, 0.005, 9.6)" width="0.01" height="19.2"><text text-decoration="none" x="0.005" fill="#4b4b4b" font-size="10pt" font-family="noto_regular"  y="17"></text></g></g><g id="WY7380PbwD8"><g><path d="M 540,-510 L 895,-600" fill="none" stroke="#7E7E7E" stroke-width="2" stroke-linecap="round" stroke-linejoin="round"/></g></g><g id="chzJWnmA9E8"><g><path d="M 540,-510 L 895,-380" fill="none" stroke="#7E7E7E" stroke-width="2" stroke-linecap="round" stroke-linejoin="round"/></g></g><g id="1a9ZduNg3pA"><g><path d="M 540,-510 L 895,-160" fill="none" stroke="#7E7E7E" stroke-width="2" stroke-linecap="round" stroke-linejoin="round"/></g></g><g id="BrjRWwcRMul"><g><path d="M 540,-510 L 890,60" fill="none" stroke="#7E7E7E" stroke-width="2" stroke-linecap="round" stroke-linejoin="round"/></g></g><g id="tYDaZbcNZ3q"><g><path d="M 540,-270 L 895,-600" fill="none" stroke="#7E7E7E" stroke-width="2" stroke-linecap="round" stroke-linejoin="round"/></g></g><g id="zGefSkimtWu"><g><path d="M 540,-271 L 895,-380" fill="none" stroke="#7E7E7E" stroke-width="2" stroke-linecap="round" stroke-linejoin="round"/></g></g><g id="uZa81DbebB7"><g><path d="M 540,-270 L 895,-160" fill="none" stroke="#7E7E7E" stroke-width="2" stroke-linecap="round" stroke-linejoin="round"/></g></g><g id="p5dqWJk0GuI"><g><path d="M 540,-270 L 890,60" fill="none" stroke="#7E7E7E" stroke-width="2" stroke-linecap="round" stroke-linejoin="round"/></g></g><g id="DdpQdjau1zG"><g><path d="M 540,-30 L 895,-600" fill="none" stroke="#7E7E7E" stroke-width="2" stroke-linecap="round" stroke-linejoin="round"/></g></g><g id="Dp8z5tpYhLt"><g><path d="M 540,-30 L 895,-380" fill="none" stroke="#7E7E7E" stroke-width="2" stroke-linecap="round" stroke-linejoin="round"/></g></g><g id="obN9ParUt39"><g><path d="M 540,-30 L 895,-160" fill="none" stroke="#7E7E7E" stroke-width="2" stroke-linecap="round" stroke-linejoin="round"/></g></g><g id="2Z6rRcGpDQd"><g><path d="M 540,-30 L 890,60" fill="none" stroke="#7E7E7E" stroke-width="2" stroke-linecap="round" stroke-linejoin="round"/></g></g><g id="eDHMPNdmcsZ"><g><path d="M 995,-600 L 1355,-450" fill="none" stroke="#7E7E7E" stroke-width="2" stroke-linecap="round" stroke-linejoin="round"/></g></g><g id="M0TjzcCpWTW"><g><path d="M 995,-600 L 1355,-220" fill="none" stroke="#7E7E7E" stroke-width="2" stroke-linecap="round" stroke-linejoin="round"/></g></g><g id="xU4W72zwbEm"><g><path d="M 991,-380 L 1355,-450" fill="none" stroke="#7E7E7E" stroke-width="2" stroke-linecap="round" stroke-linejoin="round"/></g></g><g id="4Y5zlXWz6fS"><g><path d="M 995,-380 L 1355,-220" fill="none" stroke="#7E7E7E" stroke-width="2" stroke-linecap="round" stroke-linejoin="round"/></g></g><g id="MPkUApBVqFu"><g><path d="M 995,-160 L 1355,-450" fill="none" stroke="#7E7E7E" stroke-width="2" stroke-linecap="round" stroke-linejoin="round"/></g></g><g id="w4OaynrYC5P"><g><path d="M 995,-160 L 1355,-220" fill="none" stroke="#7E7E7E" stroke-width="2" stroke-linecap="round" stroke-linejoin="round"/></g></g><g id="qBbfvetbC7H"><g><path d="M 990,60 L 1355,-450" fill="none" stroke="#7E7E7E" stroke-width="2" stroke-linecap="round" stroke-linejoin="round"/></g></g><g id="KHmQIekbaXt"><g><path d="M 990,60 L 1355,-220" fill="none" stroke="#7E7E7E" stroke-width="2" stroke-linecap="round" stroke-linejoin="round"/></g></g><g id="TkhnzDY6zax"><g transform="translate(390 -850)"><path d="M 10,0 L 199.99999999999997,0 L 199.99999999999997,0 L 199.99999999999997,0 A 10 10 0 0 1 209.99999999999997 10 L 209.99999999999997,70.00000000000016 L 209.99999999999997,70.00000000000016 L 209.99999999999997,70.00000000000016 A 10 10 0 0 1 199.99999999999997 80.00000000000016 L 10,80.00000000000016 L 10,80.00000000000016 L 10,80.00000000000016 A 10 10 0 0 1 0 70.00000000000016 L 0,10 L 0,10 L 0,10.000000000000002 A 10 10 0 0 1 10 0 Z" fill="rgb(182,241,250)" stroke="#418FAE" stroke-width="2" stroke-linecap="round" stroke-linejoin="round"/></g><g transform="translate(430.395, -826.4) rotate(0, 64.605, 16.4)" width="129.21" height="32.8"><text text-decoration="none" x="1.605000000000004" fill="#2D5D73" font-size="18pt" font-family="noto_regular"  y="26">Input&#160;</text><text text-decoration="none" x="67.605" fill="#2D5D73" font-size="18pt" font-family="noto_regular"  y="26">Layer</text><text text-decoration="none" x="127.605" fill="#4b4b4b" font-size="10pt" font-family="noto_regular"  y="26"></text></g></g><g id="y2kT0JlnoVy"><g transform="translate(840 -850.0000000000002)"><path d="M 10,0 L 199.99999999999997,0 L 199.99999999999997,0 L 199.99999999999997,0 A 10 10 0 0 1 209.99999999999997 10 L 209.99999999999997,70.00000000000016 L 209.99999999999997,70.00000000000016 L 209.99999999999997,70.00000000000016 A 10 10 0 0 1 199.99999999999997 80.00000000000016 L 10,80.00000000000016 L 10,80.00000000000016 L 10,80.00000000000016 A 10 10 0 0 1 0 70.00000000000016 L 0,10 L 0,10 L 0,10.000000000000002 A 10 10 0 0 1 10 0 Z" fill="rgb(239,209,251)" stroke="#B135CC" stroke-width="2" stroke-linecap="round" stroke-linejoin="round"/></g><g transform="translate(870.0699999999999, -826.4000000000002) rotate(0, 74.93, 16.4)" width="149.86" height="32.8"><text text-decoration="none" x="0.9300000000000068" fill="#7B248A" font-size="18pt" font-family="noto_regular"  y="26">Hidden&#160;</text><text text-decoration="none" x="88.93" fill="#7B248A" font-size="18pt" font-family="noto_regular"  y="26">Layer</text><text text-decoration="none" x="148.93" fill="#4b4b4b" font-size="10pt" font-family="noto_regular"  y="26"></text></g></g><g id="IboBzSsSAvB"><g transform="translate(1300.0000000000005 -850)"><path d="M 10,0 L 199.99999999999997,0 L 199.99999999999997,0 L 199.99999999999997,0 A 10 10 0 0 1 209.99999999999997 10 L 209.99999999999997,70.00000000000016 L 209.99999999999997,70.00000000000016 L 209.99999999999997,70.00000000000016 A 10 10 0 0 1 199.99999999999997 80.00000000000016 L 10,80.00000000000016 L 10,80.00000000000016 L 10,80.00000000000016 A 10 10 0 0 1 0 70.00000000000016 L 0,10 L 0,10 L 0,10.000000000000002 A 10 10 0 0 1 10 0 Z" fill="rgb(249,231,150)" stroke="#CC7B2E" stroke-width="2" stroke-linecap="round" stroke-linejoin="round"/></g><g transform="translate(1330.7650000000006, -826.4) rotate(0, 74.235, 16.4)" width="148.47" height="32.8"><text text-decoration="none" x="1.2349999999999994" fill="#88451D" font-size="18pt" font-family="noto_regular"  y="26">Output&#160;</text><text text-decoration="none" x="87.235" fill="#88451D" font-size="18pt" font-family="noto_regular"  y="26">Layer</text><text text-decoration="none" x="147.235" fill="#4b4b4b" font-size="10pt" font-family="noto_regular"  y="26"></text></g></g><g id="gJ8YQsJrSgR"><g transform="translate(190.00000000000003 -300)"><path d="M 25.00000000000004,50.00000000000008 L 25.00000000000004,50.00000000000008 L 25.00000000000004,50.00000000000008 A 25.00000000000004 25.00000000000004 0 0 1 0 25.000000000000043 L 0,25.00000000000004 L 0,25.000000000000043 A 25.00000000000004 25.00000000000004 0 0 1 25.00000000000004 0 L 155.00000000002456,0 L 155.00000000002456,0 L 155.00000000002456,0 A 25.00000000000004 25.00000000000004 0 0 1 180.00000000002458 25.00000000000004 L 180.00000000002458,25.00000000000004 L 180.00000000002458,25.00000000000004 A 25.00000000000004 25.00000000000004 0 0 1 155.00000000002456 50.00000000000008 L 25.00000000000004,50.00000000000008 Z" fill="rgb(199,245,211)" stroke="#4BA154" stroke-width="2" stroke-linecap="round" stroke-linejoin="round"/></g><g transform="translate(200.00000000001234, -293.3999996185302) rotate(0, 80, 18.399999618530273)" width="160" height="36.79999923706055"><text text-decoration="none" x="26" fill="#306339" font-size="20pt" font-family="noto_regular"  y="28">Input&#160;</text><text text-decoration="none" x="102" fill="#306339" font-size="20pt" font-family="noto_regular"  y="28">#2</text><text text-decoration="none" x="134" fill="#4b4b4b" font-size="10pt" font-family="noto_regular"  y="28"></text></g></g><g id="02l8CEdS8Jx"><g transform="translate(190.00000000000014 -540)"><path d="M 24.999999999999915,49.99999999999983 L 24.999999999999915,49.99999999999983 L 24.999999999999915,49.99999999999983 A 24.999999999999915 24.999999999999915 0 0 1 0 24.99999999999992 L 0,24.999999999999915 L 0,24.99999999999992 A 24.999999999999915 24.999999999999915 0 0 1 24.999999999999915 0 L 155.00000000002467,0 L 155.00000000002467,0 L 155.00000000002467,0 A 24.999999999999915 24.999999999999915 0 0 1 180.00000000002458 24.999999999999915 L 180.00000000002458,24.999999999999915 L 180.00000000002458,24.999999999999915 A 24.999999999999915 24.999999999999915 0 0 1 155.00000000002467 49.99999999999983 L 24.999999999999915,49.99999999999983 Z" fill="rgb(199,245,211)" stroke="#4BA154" stroke-width="2" stroke-linecap="round" stroke-linejoin="round"/></g><g transform="translate(226.46000000001246, -533.4000000000001) rotate(0, 53.54, 18.4)" width="107.08" height="36.8"><text text-decoration="none" x="19.04" fill="#306339" font-size="20pt" font-family="noto_regular"  y="28">Input&#160;</text><text text-decoration="none" x="37.54" fill="#306339" font-size="20pt" font-family="noto_regular"  y="64">#1</text><text text-decoration="none" x="69.53999999999999" fill="#4b4b4b" font-size="10pt" font-family="noto_regular"  y="64"></text></g></g><g id="2dVOv3L4KY1"><g transform="translate(190 -50)"><path d="M 25.00000000000004,50.00000000000008 L 25.00000000000004,50.00000000000008 L 25.00000000000004,50.00000000000008 A 25.00000000000004 25.00000000000004 0 0 1 0 25.000000000000043 L 0,25.00000000000004 L 0,25.000000000000043 A 25.00000000000004 25.00000000000004 0 0 1 25.00000000000004 0 L 155.00000000002456,0 L 155.00000000002456,0 L 155.00000000002456,0 A 25.00000000000004 25.00000000000004 0 0 1 180.00000000002458 25.00000000000004 L 180.00000000002458,25.00000000000004 L 180.00000000002458,25.00000000000004 A 25.00000000000004 25.00000000000004 0 0 1 155.00000000002456 50.00000000000008 L 25.00000000000004,50.00000000000008 Z" fill="rgb(199,245,211)" stroke="#4BA154" stroke-width="2" stroke-linecap="round" stroke-linejoin="round"/></g><g transform="translate(200.00000000001228, -43.39999961853023) rotate(0, 80, 18.399999618530273)" width="160" height="36.79999923706055"><text text-decoration="none" x="26" fill="#306339" font-size="20pt" font-family="noto_regular"  y="28">Input&#160;</text><text text-decoration="none" x="102" fill="#306339" font-size="20pt" font-family="noto_regular"  y="28">#3</text><text text-decoration="none" x="134" fill="#4b4b4b" font-size="10pt" font-family="noto_regular"  y="28"></text></g></g></svg>